<svg width="1445" height="935" viewBox="0 0 1445 935" fill="none" xmlns="http://www.w3.org/2000/svg">
<g clip-path="url(#clip0_1_2)">
<rect width="1445" height="935" fill="white"/>
<path d="M0 0H1575L1516 980.5L0 1024V0Z" fill="#D9E5F3"/>
<path d="M1325.21 550.697C1786.82 447.935 2268.07 559.064 2451 627.473V814L-507.505 794.806C-509.388 770.198 -512.023 697.851 -507.505 605.326C-359.721 659.956 748.189 679.15 1325.21 550.697Z" fill="#B8CCE4"/>
<path d="M561.376 662.167C338.784 579.965 350.213 399.122 -21.2331 449.731L-98 919.106L1564.83 1141.47C1576.01 1079.72 1607.26 897.908 1642.81 664.665C1537.66 788.613 783.969 744.368 561.376 662.167Z" fill="#CBDAEC"/>
<path d="M581.431 710.733C332.774 617.741 73.5366 718.304 -25 780.209V949L1568.66 931.631C1569.67 909.363 1571.09 843.895 1568.66 760.167C1489.05 809.602 892.252 826.971 581.431 710.733Z" fill="white"/>
<path d="M1163.5 607L1195.11 670H1131.89L1163.5 607Z" fill="white"/>
<rect x="1132" y="670" width="63" height="96" fill="white"/>
<path d="M1108 752.867L1128 734V766.145L1108 792V752.867Z" fill="white"/>
<path d="M1219 752.867L1199 734V766.145L1219 792V752.867Z" fill="white"/>
<rect x="1161" y="735" width="5" height="56" fill="white"/>
<circle cx="1163.5" cy="709.5" r="14.5" fill="#D9E5F3"/>
<circle cx="1128.5" cy="302.5" r="90.5" fill="white"/>
<ellipse cx="272" cy="394.5" rx="146" ry="140.5" fill="white"/>
</g>
<defs>
<clipPath id="clip0_1_2">
<rect width="1445" height="935" fill="white"/>
</clipPath>
</defs>
</svg>
