<svg width="1512" height="982" viewBox="0 0 1512 982" fill="none" xmlns="http://www.w3.org/2000/svg">
<g clip-path="url(#clip0_1_2)">
<rect width="1512" height="982" fill="white"/>
<path d="M0 0H1575L1516 980.5L0 1024V0Z" fill="#D9E5F3"/>
<path d="M1333.21 666.697C1794.82 563.935 2276.07 675.064 2459 743.473V930L-499.505 910.806C-501.388 886.198 -504.023 813.851 -499.505 721.326C-351.721 775.956 756.189 795.15 1333.21 666.697Z" fill="#B8CCE4"/>
<path d="M546.376 753.22C323.784 671.019 335.213 490.175 -36.2331 540.784L-113 1010.16L1549.83 1232.52C1561.01 1170.77 1592.26 988.962 1627.81 755.719C1522.66 879.667 768.969 835.422 546.376 753.22Z" fill="#CBDAEC"/>
<path d="M569.431 809.733C320.774 716.741 61.5366 817.304 -37 879.209V1048L1556.66 1030.63C1557.67 1008.36 1559.09 942.895 1556.66 859.167C1477.05 908.602 880.252 925.971 569.431 809.733Z" fill="white"/>
<path d="M1160.5 655L1192.11 718H1128.89L1160.5 655Z" fill="white"/>
<rect x="1129" y="718" width="63" height="96" fill="white"/>
<path d="M1105 800.867L1125 782V814.145L1105 840V800.867Z" fill="white"/>
<path d="M1216 800.867L1196 782V814.145L1216 840V800.867Z" fill="white"/>
<rect x="1158" y="783" width="5" height="56" fill="white"/>
<circle cx="1160.5" cy="757.5" r="14.5" fill="#D9E5F3"/>
<circle cx="1128.5" cy="302.5" r="90.5" fill="white"/>
<ellipse cx="272" cy="394.5" rx="146" ry="140.5" fill="white"/>
</g>
<defs>
<clipPath id="clip0_1_2">
<rect width="1512" height="982" fill="white"/>
</clipPath>
</defs>
</svg>
